<?xml version="1.0" encoding="UTF-8" standalone="no"?>
<!DOCTYPE svg PUBLIC "-//W3C//DTD SVG 1.1//EN"
 "http://www.w3.org/Graphics/SVG/1.1/DTD/svg11.dtd">
<!-- Generated by graphviz version 2.40.1 (20161225.0304)
 -->
<!-- Title: articles Pages: 1 -->
<svg width="781pt" height="592pt"
 viewBox="0.00 0.00 781.00 592.00" xmlns="http://www.w3.org/2000/svg" xmlns:xlink="http://www.w3.org/1999/xlink">
<g id="graph0" class="graph" transform="scale(1 1) rotate(0) translate(4 588)">
<title>articles</title>
<polygon fill="#ffffff" stroke="transparent" points="-4,4 -4,-588 777,-588 777,4 -4,4"/>
<!-- articles -->
<g id="node1" class="node">
<title>articles</title>
<polygon fill="#efefef" stroke="transparent" points="46,-195.5 46,-230.5 212,-230.5 212,-195.5 46,-195.5"/>
<polygon fill="none" stroke="#000000" points="46,-195.5 46,-230.5 212,-230.5 212,-195.5 46,-195.5"/>
<text text-anchor="start" x="79.494" y="-208.3" font-family="Arial Bold" font-size="18.00" fill="#000000">articles</text>
<text text-anchor="start" x="136.4892" y="-208.3" font-family="Arial" font-size="14.00" fill="#000000"> </text>
<text text-anchor="start" x="140.3798" y="-208.3" font-family="Arial" font-size="14.00" fill="#666666">[table]</text>
<polygon fill="none" stroke="#000000" points="46,-165.5 46,-195.5 212,-195.5 212,-165.5 46,-165.5"/>
<text text-anchor="start" x="53" y="-176.9" font-family="Arial" font-size="14.00" fill="#000000">id </text>
<text text-anchor="start" x="67.7798" y="-176.9" font-family="Arial" font-size="14.00" fill="#666666">[INTEGER]</text>
<polygon fill="none" stroke="#000000" points="46,-135.5 46,-165.5 212,-165.5 212,-135.5 46,-135.5"/>
<text text-anchor="start" x="53" y="-146.9" font-family="Arial" font-size="14.00" fill="#000000">title </text>
<text text-anchor="start" x="78.6676" y="-146.9" font-family="Arial" font-size="14.00" fill="#666666">[varchar]</text>
<polygon fill="none" stroke="#000000" points="46,-105.5 46,-135.5 212,-135.5 212,-105.5 46,-105.5"/>
<text text-anchor="start" x="53" y="-116.9" font-family="Arial" font-size="14.00" fill="#000000">content </text>
<text text-anchor="start" x="102.8022" y="-116.9" font-family="Arial" font-size="14.00" fill="#666666">[TEXT]</text>
<polygon fill="none" stroke="#000000" points="46,-75.5 46,-105.5 212,-105.5 212,-75.5 46,-75.5"/>
<text text-anchor="start" x="53" y="-86.9" font-family="Arial" font-size="14.00" fill="#000000">created_at </text>
<text text-anchor="start" x="123.028" y="-86.9" font-family="Arial" font-size="14.00" fill="#666666">[datetime(6)]</text>
<polygon fill="none" stroke="#000000" points="46,-45.5 46,-75.5 212,-75.5 212,-45.5 46,-45.5"/>
<text text-anchor="start" x="52.7518" y="-56.9" font-family="Arial" font-size="14.00" fill="#000000">updated_at </text>
<text text-anchor="start" x="126.6844" y="-56.9" font-family="Arial" font-size="14.00" fill="#666666">[datetime(6)]</text>
<polygon fill="none" stroke="#000000" stroke-width="3" points="44.5,-44.5 44.5,-232.5 213.5,-232.5 213.5,-44.5 44.5,-44.5"/>
</g>
<!-- taggings -->
<g id="node2" class="node">
<title>taggings</title>
<polygon fill="#efefef" stroke="transparent" points="46,-505.5 46,-540.5 212,-540.5 212,-505.5 46,-505.5"/>
<polygon fill="none" stroke="#000000" points="46,-505.5 46,-540.5 212,-540.5 212,-505.5 46,-505.5"/>
<text text-anchor="start" x="73.9779" y="-518.3" font-family="Arial Bold" font-size="18.00" fill="#000000">taggings</text>
<text text-anchor="start" x="142.0053" y="-518.3" font-family="Arial" font-size="14.00" fill="#000000"> </text>
<text text-anchor="start" x="145.8959" y="-518.3" font-family="Arial" font-size="14.00" fill="#666666">[table]</text>
<polygon fill="none" stroke="#000000" points="46,-475.5 46,-505.5 212,-505.5 212,-475.5 46,-475.5"/>
<text text-anchor="start" x="53" y="-486.9" font-family="Arial" font-size="14.00" fill="#000000">id </text>
<text text-anchor="start" x="67.7798" y="-486.9" font-family="Arial" font-size="14.00" fill="#666666">[INTEGER]</text>
<polygon fill="none" stroke="#000000" points="46,-445.5 46,-475.5 212,-475.5 212,-445.5 46,-445.5"/>
<text text-anchor="start" x="53" y="-456.9" font-family="Arial" font-size="14.00" fill="#000000">article_id </text>
<text text-anchor="start" x="112.892" y="-456.9" font-family="Arial" font-size="14.00" fill="#666666">[INTEGER]</text>
<polygon fill="none" stroke="#000000" points="46,-415.5 46,-445.5 212,-445.5 212,-415.5 46,-415.5"/>
<text text-anchor="start" x="53" y="-426.9" font-family="Arial" font-size="14.00" fill="#000000">tag_id </text>
<text text-anchor="start" x="95.0182" y="-426.9" font-family="Arial" font-size="14.00" fill="#666666">[INTEGER]</text>
<polygon fill="none" stroke="#000000" points="46,-385.5 46,-415.5 212,-415.5 212,-385.5 46,-385.5"/>
<text text-anchor="start" x="53" y="-396.9" font-family="Arial" font-size="14.00" fill="#000000">created_at </text>
<text text-anchor="start" x="123.028" y="-396.9" font-family="Arial" font-size="14.00" fill="#666666">[datetime(6)]</text>
<polygon fill="none" stroke="#000000" points="46,-355.5 46,-385.5 212,-385.5 212,-355.5 46,-355.5"/>
<text text-anchor="start" x="52.7518" y="-366.9" font-family="Arial" font-size="14.00" fill="#000000">updated_at </text>
<text text-anchor="start" x="126.6844" y="-366.9" font-family="Arial" font-size="14.00" fill="#666666">[datetime(6)]</text>
</g>
<!-- taggings&#45;&gt;articles -->
<g id="edge1" class="edge">
<title>taggings:article_id&#45;&gt;articles:id</title>
<path fill="none" stroke="#000000" d="M221.9741,-457.9069C274.0226,-429.6795 270.6979,-180.5 212,-180.5"/>
<polygon fill="#000000" stroke="#000000" points="221.6783,-457.9837 210.8677,-456.1448 216.8391,-459.2419 212,-460.5 212,-460.5 212,-460.5 216.8391,-459.2419 213.1323,-464.8552 221.6783,-457.9837 221.6783,-457.9837"/>
<text text-anchor="start" x="219.1235" y="-470.5" font-family="Arial" font-size="10.00" fill="#000000">FOREIGN KEY (article_id) REFERENCES articles (id) ON UPDATE NO ACTION ON DELETE NO ACTION MATCH NONE</text>
</g>
</g>
</svg>
