<?xml version="1.0" encoding="UTF-8" standalone="no"?>
<!DOCTYPE svg PUBLIC "-//W3C//DTD SVG 1.1//EN"
 "http://www.w3.org/Graphics/SVG/1.1/DTD/svg11.dtd">
<!-- Generated by graphviz version 2.40.1 (20161225.0304)
 -->
<!-- Title: development.sqlite3 Pages: 1 -->
<svg width="1399pt" height="586pt"
 viewBox="0.00 0.00 1399.00 586.00" xmlns="http://www.w3.org/2000/svg" xmlns:xlink="http://www.w3.org/1999/xlink">
<g id="graph0" class="graph" transform="scale(1 1) rotate(0) translate(4 582)">
<title>development.sqlite3</title>
<polygon fill="#ffffff" stroke="transparent" points="-4,4 -4,-582 1395,-582 1395,4 -4,4"/>
<!-- schema_migrations -->
<g id="node1" class="node">
<title>schema_migrations</title>
<polygon fill="#efefef" stroke="transparent" points="43,-439.5 43,-474.5 255,-474.5 255,-439.5 43,-439.5"/>
<polygon fill="none" stroke="#000000" points="43,-439.5 43,-474.5 255,-474.5 255,-439.5 43,-439.5"/>
<text text-anchor="start" x="49.9832" y="-452.3" font-family="Arial Bold" font-size="18.00" fill="#000000">schema_migrations</text>
<text text-anchor="start" x="206" y="-452.3" font-family="Arial" font-size="14.00" fill="#000000"> </text>
<text text-anchor="start" x="209.8906" y="-452.3" font-family="Arial" font-size="14.00" fill="#666666">[table]</text>
<polygon fill="none" stroke="#000000" points="43,-409.5 43,-439.5 255,-439.5 255,-409.5 43,-409.5"/>
<text text-anchor="start" x="50" y="-420.9" font-family="Arial" font-size="14.00" fill="#000000">version </text>
<text text-anchor="start" x="99.0056" y="-420.9" font-family="Arial" font-size="14.00" fill="#666666">[varchar]</text>
</g>
<!-- ar_internal_metadata -->
<g id="node2" class="node">
<title>ar_internal_metadata</title>
<polygon fill="#efefef" stroke="transparent" points="359,-484.5 359,-519.5 585,-519.5 585,-484.5 359,-484.5"/>
<polygon fill="none" stroke="#000000" points="359,-484.5 359,-519.5 585,-519.5 585,-484.5 359,-484.5"/>
<text text-anchor="start" x="365.9686" y="-497.3" font-family="Arial Bold" font-size="18.00" fill="#000000">ar_internal_metadata</text>
<text text-anchor="start" x="536.0146" y="-497.3" font-family="Arial" font-size="14.00" fill="#000000"> </text>
<text text-anchor="start" x="539.9052" y="-497.3" font-family="Arial" font-size="14.00" fill="#666666">[table]</text>
<polygon fill="none" stroke="#000000" points="359,-454.5 359,-484.5 585,-484.5 585,-454.5 359,-454.5"/>
<text text-anchor="start" x="366" y="-465.9" font-family="Arial" font-size="14.00" fill="#000000">key </text>
<text text-anchor="start" x="391.6732" y="-465.9" font-family="Arial" font-size="14.00" fill="#666666">[varchar]</text>
<polygon fill="none" stroke="#000000" points="359,-424.5 359,-454.5 585,-454.5 585,-424.5 359,-424.5"/>
<text text-anchor="start" x="366" y="-435.9" font-family="Arial" font-size="14.00" fill="#000000">value </text>
<text text-anchor="start" x="403.345" y="-435.9" font-family="Arial" font-size="14.00" fill="#666666">[varchar]</text>
<polygon fill="none" stroke="#000000" points="359,-394.5 359,-424.5 585,-424.5 585,-394.5 359,-394.5"/>
<text text-anchor="start" x="366" y="-405.9" font-family="Arial" font-size="14.00" fill="#000000">created_at </text>
<text text-anchor="start" x="436.028" y="-405.9" font-family="Arial" font-size="14.00" fill="#666666">[datetime(6)]</text>
<polygon fill="none" stroke="#000000" points="359,-364.5 359,-394.5 585,-394.5 585,-364.5 359,-364.5"/>
<text text-anchor="start" x="366" y="-375.9" font-family="Arial" font-size="14.00" fill="#000000">updated_at </text>
<text text-anchor="start" x="439.9326" y="-375.9" font-family="Arial" font-size="14.00" fill="#666666">[datetime(6)]</text>
</g>
<!-- articles -->
<g id="node3" class="node">
<title>articles</title>
<polygon fill="#efefef" stroke="transparent" points="554,-192.5 554,-227.5 720,-227.5 720,-192.5 554,-192.5"/>
<polygon fill="none" stroke="#000000" points="554,-192.5 554,-227.5 720,-227.5 720,-192.5 554,-192.5"/>
<text text-anchor="start" x="587.494" y="-205.3" font-family="Arial Bold" font-size="18.00" fill="#000000">articles</text>
<text text-anchor="start" x="644.4892" y="-205.3" font-family="Arial" font-size="14.00" fill="#000000"> </text>
<text text-anchor="start" x="648.3798" y="-205.3" font-family="Arial" font-size="14.00" fill="#666666">[table]</text>
<polygon fill="none" stroke="#000000" points="554,-162.5 554,-192.5 720,-192.5 720,-162.5 554,-162.5"/>
<text text-anchor="start" x="561" y="-173.9" font-family="Arial" font-size="14.00" fill="#000000">id </text>
<text text-anchor="start" x="575.7798" y="-173.9" font-family="Arial" font-size="14.00" fill="#666666">[INTEGER]</text>
<polygon fill="none" stroke="#000000" points="554,-132.5 554,-162.5 720,-162.5 720,-132.5 554,-132.5"/>
<text text-anchor="start" x="561" y="-143.9" font-family="Arial" font-size="14.00" fill="#000000">title </text>
<text text-anchor="start" x="586.6676" y="-143.9" font-family="Arial" font-size="14.00" fill="#666666">[varchar]</text>
<polygon fill="none" stroke="#000000" points="554,-102.5 554,-132.5 720,-132.5 720,-102.5 554,-102.5"/>
<text text-anchor="start" x="561" y="-113.9" font-family="Arial" font-size="14.00" fill="#000000">content </text>
<text text-anchor="start" x="610.8022" y="-113.9" font-family="Arial" font-size="14.00" fill="#666666">[TEXT]</text>
<polygon fill="none" stroke="#000000" points="554,-72.5 554,-102.5 720,-102.5 720,-72.5 554,-72.5"/>
<text text-anchor="start" x="561" y="-83.9" font-family="Arial" font-size="14.00" fill="#000000">created_at </text>
<text text-anchor="start" x="631.028" y="-83.9" font-family="Arial" font-size="14.00" fill="#666666">[datetime(6)]</text>
<polygon fill="none" stroke="#000000" points="554,-42.5 554,-72.5 720,-72.5 720,-42.5 554,-42.5"/>
<text text-anchor="start" x="560.7518" y="-53.9" font-family="Arial" font-size="14.00" fill="#000000">updated_at </text>
<text text-anchor="start" x="634.6844" y="-53.9" font-family="Arial" font-size="14.00" fill="#666666">[datetime(6)]</text>
</g>
<!-- tags -->
<g id="node4" class="node">
<title>tags</title>
<polygon fill="#efefef" stroke="transparent" points="824,-177.5 824,-212.5 990,-212.5 990,-177.5 824,-177.5"/>
<polygon fill="none" stroke="#000000" points="824,-177.5 824,-212.5 990,-212.5 990,-177.5 824,-177.5"/>
<text text-anchor="start" x="868.9843" y="-190.3" font-family="Arial Bold" font-size="18.00" fill="#000000">tags</text>
<text text-anchor="start" x="902.9989" y="-190.3" font-family="Arial" font-size="14.00" fill="#000000"> </text>
<text text-anchor="start" x="906.8895" y="-190.3" font-family="Arial" font-size="14.00" fill="#666666">[table]</text>
<polygon fill="none" stroke="#000000" points="824,-147.5 824,-177.5 990,-177.5 990,-147.5 824,-147.5"/>
<text text-anchor="start" x="831" y="-158.9" font-family="Arial" font-size="14.00" fill="#000000">id </text>
<text text-anchor="start" x="845.7798" y="-158.9" font-family="Arial" font-size="14.00" fill="#666666">[INTEGER]</text>
<polygon fill="none" stroke="#000000" points="824,-117.5 824,-147.5 990,-147.5 990,-117.5 824,-117.5"/>
<text text-anchor="start" x="831" y="-128.9" font-family="Arial" font-size="14.00" fill="#000000">name </text>
<text text-anchor="start" x="869.899" y="-128.9" font-family="Arial" font-size="14.00" fill="#666666">[varchar]</text>
<polygon fill="none" stroke="#000000" points="824,-87.5 824,-117.5 990,-117.5 990,-87.5 824,-87.5"/>
<text text-anchor="start" x="831" y="-98.9" font-family="Arial" font-size="14.00" fill="#000000">created_at </text>
<text text-anchor="start" x="901.028" y="-98.9" font-family="Arial" font-size="14.00" fill="#666666">[datetime(6)]</text>
<polygon fill="none" stroke="#000000" points="824,-57.5 824,-87.5 990,-87.5 990,-57.5 824,-57.5"/>
<text text-anchor="start" x="830.7518" y="-68.9" font-family="Arial" font-size="14.00" fill="#000000">updated_at </text>
<text text-anchor="start" x="904.6844" y="-68.9" font-family="Arial" font-size="14.00" fill="#666666">[datetime(6)]</text>
</g>
<!-- taggings -->
<g id="node5" class="node">
<title>taggings</title>
<polygon fill="#efefef" stroke="transparent" points="689,-499.5 689,-534.5 855,-534.5 855,-499.5 689,-499.5"/>
<polygon fill="none" stroke="#000000" points="689,-499.5 689,-534.5 855,-534.5 855,-499.5 689,-499.5"/>
<text text-anchor="start" x="716.9779" y="-512.3" font-family="Arial Bold" font-size="18.00" fill="#000000">taggings</text>
<text text-anchor="start" x="785.0053" y="-512.3" font-family="Arial" font-size="14.00" fill="#000000"> </text>
<text text-anchor="start" x="788.8959" y="-512.3" font-family="Arial" font-size="14.00" fill="#666666">[table]</text>
<polygon fill="none" stroke="#000000" points="689,-469.5 689,-499.5 855,-499.5 855,-469.5 689,-469.5"/>
<text text-anchor="start" x="696" y="-480.9" font-family="Arial" font-size="14.00" fill="#000000">id </text>
<text text-anchor="start" x="710.7798" y="-480.9" font-family="Arial" font-size="14.00" fill="#666666">[INTEGER]</text>
<polygon fill="none" stroke="#000000" points="689,-439.5 689,-469.5 855,-469.5 855,-439.5 689,-439.5"/>
<text text-anchor="start" x="696" y="-450.9" font-family="Arial" font-size="14.00" fill="#000000">article_id </text>
<text text-anchor="start" x="755.892" y="-450.9" font-family="Arial" font-size="14.00" fill="#666666">[INTEGER]</text>
<polygon fill="none" stroke="#000000" points="689,-409.5 689,-439.5 855,-439.5 855,-409.5 689,-409.5"/>
<text text-anchor="start" x="696" y="-420.9" font-family="Arial" font-size="14.00" fill="#000000">tag_id </text>
<text text-anchor="start" x="738.0182" y="-420.9" font-family="Arial" font-size="14.00" fill="#666666">[INTEGER]</text>
<polygon fill="none" stroke="#000000" points="689,-379.5 689,-409.5 855,-409.5 855,-379.5 689,-379.5"/>
<text text-anchor="start" x="696" y="-390.9" font-family="Arial" font-size="14.00" fill="#000000">created_at </text>
<text text-anchor="start" x="766.028" y="-390.9" font-family="Arial" font-size="14.00" fill="#666666">[datetime(6)]</text>
<polygon fill="none" stroke="#000000" points="689,-349.5 689,-379.5 855,-379.5 855,-349.5 689,-349.5"/>
<text text-anchor="start" x="695.7518" y="-360.9" font-family="Arial" font-size="14.00" fill="#000000">updated_at </text>
<text text-anchor="start" x="769.6844" y="-360.9" font-family="Arial" font-size="14.00" fill="#666666">[datetime(6)]</text>
</g>
<!-- taggings&#45;&gt;articles -->
<g id="edge2" class="edge">
<title>taggings:article_id&#45;&gt;articles:id</title>
<path fill="none" stroke="#000000" d="M678.8797,-453.692C628.2223,-444.8319 667.4778,-364.9766 689,-307 696.3482,-287.2053 712.6518,-290.7947 720,-271 734.462,-232.0422 761.5556,-177.5 720,-177.5"/>
<polygon fill="#000000" stroke="#000000" points="679.0317,-453.704 688.6418,-458.9857 684.0159,-454.102 689,-454.5 689,-454.5 689,-454.5 684.0159,-454.102 689.3582,-450.0143 679.0317,-453.704 679.0317,-453.704"/>
<text text-anchor="start" x="696.1235" y="-464.5" font-family="Arial" font-size="10.00" fill="#000000">FOREIGN KEY (article_id) REFERENCES articles (id) ON UPDATE NO ACTION ON DELETE NO ACTION MATCH NONE</text>
</g>
<!-- taggings&#45;&gt;tags -->
<g id="edge1" class="edge">
<title>taggings:tag_id&#45;&gt;tags:id</title>
<path fill="none" stroke="#000000" d="M865.1812,-423.4237C901.6936,-414.6163 868.0391,-353.5548 855,-307 847.846,-281.4574 831.154,-281.5426 824,-256 812.7924,-215.9843 782.4444,-162.5 824,-162.5"/>
<polygon fill="#000000" stroke="#000000" points="864.9446,-423.4486 854.5269,-420.0249 859.9723,-423.9743 855,-424.5 855,-424.5 855,-424.5 859.9723,-423.9743 855.4731,-428.9751 864.9446,-423.4486 864.9446,-423.4486"/>
<text text-anchor="start" x="861.8905" y="-434.5" font-family="Arial" font-size="10.00" fill="#000000">FOREIGN KEY (tag_id) REFERENCES tags (id) ON UPDATE NO ACTION ON DELETE NO ACTION MATCH NONE</text>
</g>
</g>
</svg>
