<?xml version="1.0" encoding="UTF-8" standalone="no"?>
<!DOCTYPE svg PUBLIC "-//W3C//DTD SVG 1.1//EN"
 "http://www.w3.org/Graphics/SVG/1.1/DTD/svg11.dtd">
<!-- Generated by graphviz version 2.40.1 (20161225.0304)
 -->
<!-- Title: taggings Pages: 1 -->
<svg width="1271pt" height="592pt"
 viewBox="0.00 0.00 1271.00 592.00" xmlns="http://www.w3.org/2000/svg" xmlns:xlink="http://www.w3.org/1999/xlink">
<g id="graph0" class="graph" transform="scale(1 1) rotate(0) translate(4 588)">
<title>taggings</title>
<polygon fill="#ffffff" stroke="transparent" points="-4,4 -4,-588 1267,-588 1267,4 -4,4"/>
<!-- taggings -->
<g id="node1" class="node">
<title>taggings</title>
<polygon fill="#efefef" stroke="transparent" points="561,-502.5 561,-537.5 727,-537.5 727,-502.5 561,-502.5"/>
<polygon fill="none" stroke="#000000" points="561,-502.5 561,-537.5 727,-537.5 727,-502.5 561,-502.5"/>
<text text-anchor="start" x="588.9779" y="-515.3" font-family="Arial Bold" font-size="18.00" fill="#000000">taggings</text>
<text text-anchor="start" x="657.0053" y="-515.3" font-family="Arial" font-size="14.00" fill="#000000"> </text>
<text text-anchor="start" x="660.8959" y="-515.3" font-family="Arial" font-size="14.00" fill="#666666">[table]</text>
<polygon fill="none" stroke="#000000" points="561,-472.5 561,-502.5 727,-502.5 727,-472.5 561,-472.5"/>
<text text-anchor="start" x="568" y="-483.9" font-family="Arial" font-size="14.00" fill="#000000">id </text>
<text text-anchor="start" x="582.7798" y="-483.9" font-family="Arial" font-size="14.00" fill="#666666">[INTEGER]</text>
<polygon fill="none" stroke="#000000" points="561,-442.5 561,-472.5 727,-472.5 727,-442.5 561,-442.5"/>
<text text-anchor="start" x="568" y="-453.9" font-family="Arial" font-size="14.00" fill="#000000">article_id </text>
<text text-anchor="start" x="627.892" y="-453.9" font-family="Arial" font-size="14.00" fill="#666666">[INTEGER]</text>
<polygon fill="none" stroke="#000000" points="561,-412.5 561,-442.5 727,-442.5 727,-412.5 561,-412.5"/>
<text text-anchor="start" x="568" y="-423.9" font-family="Arial" font-size="14.00" fill="#000000">tag_id </text>
<text text-anchor="start" x="610.0182" y="-423.9" font-family="Arial" font-size="14.00" fill="#666666">[INTEGER]</text>
<polygon fill="none" stroke="#000000" points="561,-382.5 561,-412.5 727,-412.5 727,-382.5 561,-382.5"/>
<text text-anchor="start" x="568" y="-393.9" font-family="Arial" font-size="14.00" fill="#000000">created_at </text>
<text text-anchor="start" x="638.028" y="-393.9" font-family="Arial" font-size="14.00" fill="#666666">[datetime(6)]</text>
<polygon fill="none" stroke="#000000" points="561,-352.5 561,-382.5 727,-382.5 727,-352.5 561,-352.5"/>
<text text-anchor="start" x="567.7518" y="-363.9" font-family="Arial" font-size="14.00" fill="#000000">updated_at </text>
<text text-anchor="start" x="641.6844" y="-363.9" font-family="Arial" font-size="14.00" fill="#666666">[datetime(6)]</text>
<polygon fill="none" stroke="#000000" stroke-width="3" points="559.5,-351.5 559.5,-539.5 728.5,-539.5 728.5,-351.5 559.5,-351.5"/>
</g>
<!-- articles -->
<g id="node2" class="node">
<title>articles</title>
<polygon fill="#efefef" stroke="transparent" points="426,-192.5 426,-227.5 592,-227.5 592,-192.5 426,-192.5"/>
<polygon fill="none" stroke="#000000" points="426,-192.5 426,-227.5 592,-227.5 592,-192.5 426,-192.5"/>
<text text-anchor="start" x="459.494" y="-205.3" font-family="Arial Bold" font-size="18.00" fill="#000000">articles</text>
<text text-anchor="start" x="516.4892" y="-205.3" font-family="Arial" font-size="14.00" fill="#000000"> </text>
<text text-anchor="start" x="520.3798" y="-205.3" font-family="Arial" font-size="14.00" fill="#666666">[table]</text>
<polygon fill="none" stroke="#000000" points="426,-162.5 426,-192.5 592,-192.5 592,-162.5 426,-162.5"/>
<text text-anchor="start" x="433" y="-173.9" font-family="Arial" font-size="14.00" fill="#000000">id </text>
<text text-anchor="start" x="447.7798" y="-173.9" font-family="Arial" font-size="14.00" fill="#666666">[INTEGER]</text>
<polygon fill="none" stroke="#000000" points="426,-132.5 426,-162.5 592,-162.5 592,-132.5 426,-132.5"/>
<text text-anchor="start" x="433" y="-143.9" font-family="Arial" font-size="14.00" fill="#000000">title </text>
<text text-anchor="start" x="458.6676" y="-143.9" font-family="Arial" font-size="14.00" fill="#666666">[varchar]</text>
<polygon fill="none" stroke="#000000" points="426,-102.5 426,-132.5 592,-132.5 592,-102.5 426,-102.5"/>
<text text-anchor="start" x="433" y="-113.9" font-family="Arial" font-size="14.00" fill="#000000">content </text>
<text text-anchor="start" x="482.8022" y="-113.9" font-family="Arial" font-size="14.00" fill="#666666">[TEXT]</text>
<polygon fill="none" stroke="#000000" points="426,-72.5 426,-102.5 592,-102.5 592,-72.5 426,-72.5"/>
<text text-anchor="start" x="433" y="-83.9" font-family="Arial" font-size="14.00" fill="#000000">created_at </text>
<text text-anchor="start" x="503.028" y="-83.9" font-family="Arial" font-size="14.00" fill="#666666">[datetime(6)]</text>
<polygon fill="none" stroke="#000000" points="426,-42.5 426,-72.5 592,-72.5 592,-42.5 426,-42.5"/>
<text text-anchor="start" x="432.7518" y="-53.9" font-family="Arial" font-size="14.00" fill="#000000">updated_at </text>
<text text-anchor="start" x="506.6844" y="-53.9" font-family="Arial" font-size="14.00" fill="#666666">[datetime(6)]</text>
</g>
<!-- taggings&#45;&gt;articles -->
<g id="edge1" class="edge">
<title>taggings:article_id&#45;&gt;articles:id</title>
<path fill="none" stroke="#000000" d="M550.9961,-456.7308C498.8202,-447.9727 538.9946,-366.2782 561,-307 568.3482,-287.2053 584.6518,-290.7947 592,-271 606.462,-232.0422 633.5556,-177.5 592,-177.5"/>
<polygon fill="#000000" stroke="#000000" points="551.0294,-456.7332 560.655,-461.9868 556.0147,-457.1166 561,-457.5 561,-457.5 561,-457.5 556.0147,-457.1166 561.345,-453.0132 551.0294,-456.7332 551.0294,-456.7332"/>
<text text-anchor="start" x="7.1235" y="-467.5" font-family="Arial" font-size="10.00" fill="#000000">FOREIGN KEY (article_id) REFERENCES articles (id) ON UPDATE NO ACTION ON DELETE NO ACTION MATCH NONE</text>
</g>
<!-- tags -->
<g id="node3" class="node">
<title>tags</title>
<polygon fill="#efefef" stroke="transparent" points="696,-177.5 696,-212.5 862,-212.5 862,-177.5 696,-177.5"/>
<polygon fill="none" stroke="#000000" points="696,-177.5 696,-212.5 862,-212.5 862,-177.5 696,-177.5"/>
<text text-anchor="start" x="740.9843" y="-190.3" font-family="Arial Bold" font-size="18.00" fill="#000000">tags</text>
<text text-anchor="start" x="774.9989" y="-190.3" font-family="Arial" font-size="14.00" fill="#000000"> </text>
<text text-anchor="start" x="778.8895" y="-190.3" font-family="Arial" font-size="14.00" fill="#666666">[table]</text>
<polygon fill="none" stroke="#000000" points="696,-147.5 696,-177.5 862,-177.5 862,-147.5 696,-147.5"/>
<text text-anchor="start" x="703" y="-158.9" font-family="Arial" font-size="14.00" fill="#000000">id </text>
<text text-anchor="start" x="717.7798" y="-158.9" font-family="Arial" font-size="14.00" fill="#666666">[INTEGER]</text>
<polygon fill="none" stroke="#000000" points="696,-117.5 696,-147.5 862,-147.5 862,-117.5 696,-117.5"/>
<text text-anchor="start" x="703" y="-128.9" font-family="Arial" font-size="14.00" fill="#000000">name </text>
<text text-anchor="start" x="741.899" y="-128.9" font-family="Arial" font-size="14.00" fill="#666666">[varchar]</text>
<polygon fill="none" stroke="#000000" points="696,-87.5 696,-117.5 862,-117.5 862,-87.5 696,-87.5"/>
<text text-anchor="start" x="703" y="-98.9" font-family="Arial" font-size="14.00" fill="#000000">created_at </text>
<text text-anchor="start" x="773.028" y="-98.9" font-family="Arial" font-size="14.00" fill="#666666">[datetime(6)]</text>
<polygon fill="none" stroke="#000000" points="696,-57.5 696,-87.5 862,-87.5 862,-57.5 696,-57.5"/>
<text text-anchor="start" x="702.7518" y="-68.9" font-family="Arial" font-size="14.00" fill="#000000">updated_at </text>
<text text-anchor="start" x="776.6844" y="-68.9" font-family="Arial" font-size="14.00" fill="#666666">[datetime(6)]</text>
</g>
<!-- taggings&#45;&gt;tags -->
<g id="edge2" class="edge">
<title>taggings:tag_id&#45;&gt;tags:id</title>
<path fill="none" stroke="#000000" d="M736.9633,-426.5077C775.1774,-417.8927 740.4284,-354.9449 727,-307 719.846,-281.4574 703.154,-281.5426 696,-256 684.7924,-215.9843 654.4444,-162.5 696,-162.5"/>
<polygon fill="#000000" stroke="#000000" points="736.9508,-426.5088 726.554,-423.0222 731.9754,-427.0044 727,-427.5 727,-427.5 727,-427.5 731.9754,-427.0044 727.446,-431.9778 736.9508,-426.5088 736.9508,-426.5088"/>
<text text-anchor="start" x="733.8905" y="-437.5" font-family="Arial" font-size="10.00" fill="#000000">FOREIGN KEY (tag_id) REFERENCES tags (id) ON UPDATE NO ACTION ON DELETE NO ACTION MATCH NONE</text>
</g>
</g>
</svg>
