<?xml version="1.0" encoding="UTF-8" standalone="no"?>
<!DOCTYPE svg PUBLIC "-//W3C//DTD SVG 1.1//EN"
 "http://www.w3.org/Graphics/SVG/1.1/DTD/svg11.dtd">
<!-- Generated by graphviz version 2.40.1 (20161225.0304)
 -->
<!-- Title: tags Pages: 1 -->
<svg width="756pt" height="562pt"
 viewBox="0.00 0.00 756.00 562.00" xmlns="http://www.w3.org/2000/svg" xmlns:xlink="http://www.w3.org/1999/xlink">
<g id="graph0" class="graph" transform="scale(1 1) rotate(0) translate(4 558)">
<title>tags</title>
<polygon fill="#ffffff" stroke="transparent" points="-4,4 -4,-558 752,-558 752,4 -4,4"/>
<!-- tags -->
<g id="node1" class="node">
<title>tags</title>
<polygon fill="#efefef" stroke="transparent" points="46,-165.5 46,-200.5 212,-200.5 212,-165.5 46,-165.5"/>
<polygon fill="none" stroke="#000000" points="46,-165.5 46,-200.5 212,-200.5 212,-165.5 46,-165.5"/>
<text text-anchor="start" x="90.9843" y="-178.3" font-family="Arial Bold" font-size="18.00" fill="#000000">tags</text>
<text text-anchor="start" x="124.9989" y="-178.3" font-family="Arial" font-size="14.00" fill="#000000"> </text>
<text text-anchor="start" x="128.8895" y="-178.3" font-family="Arial" font-size="14.00" fill="#666666">[table]</text>
<polygon fill="none" stroke="#000000" points="46,-135.5 46,-165.5 212,-165.5 212,-135.5 46,-135.5"/>
<text text-anchor="start" x="53" y="-146.9" font-family="Arial" font-size="14.00" fill="#000000">id </text>
<text text-anchor="start" x="67.7798" y="-146.9" font-family="Arial" font-size="14.00" fill="#666666">[INTEGER]</text>
<polygon fill="none" stroke="#000000" points="46,-105.5 46,-135.5 212,-135.5 212,-105.5 46,-105.5"/>
<text text-anchor="start" x="53" y="-116.9" font-family="Arial" font-size="14.00" fill="#000000">name </text>
<text text-anchor="start" x="91.899" y="-116.9" font-family="Arial" font-size="14.00" fill="#666666">[varchar]</text>
<polygon fill="none" stroke="#000000" points="46,-75.5 46,-105.5 212,-105.5 212,-75.5 46,-75.5"/>
<text text-anchor="start" x="53" y="-86.9" font-family="Arial" font-size="14.00" fill="#000000">created_at </text>
<text text-anchor="start" x="123.028" y="-86.9" font-family="Arial" font-size="14.00" fill="#666666">[datetime(6)]</text>
<polygon fill="none" stroke="#000000" points="46,-45.5 46,-75.5 212,-75.5 212,-45.5 46,-45.5"/>
<text text-anchor="start" x="52.7518" y="-56.9" font-family="Arial" font-size="14.00" fill="#000000">updated_at </text>
<text text-anchor="start" x="126.6844" y="-56.9" font-family="Arial" font-size="14.00" fill="#666666">[datetime(6)]</text>
<polygon fill="none" stroke="#000000" stroke-width="3" points="44.5,-44.5 44.5,-202.5 213.5,-202.5 213.5,-44.5 44.5,-44.5"/>
</g>
<!-- taggings -->
<g id="node2" class="node">
<title>taggings</title>
<polygon fill="#efefef" stroke="transparent" points="46,-475.5 46,-510.5 212,-510.5 212,-475.5 46,-475.5"/>
<polygon fill="none" stroke="#000000" points="46,-475.5 46,-510.5 212,-510.5 212,-475.5 46,-475.5"/>
<text text-anchor="start" x="73.9779" y="-488.3" font-family="Arial Bold" font-size="18.00" fill="#000000">taggings</text>
<text text-anchor="start" x="142.0053" y="-488.3" font-family="Arial" font-size="14.00" fill="#000000"> </text>
<text text-anchor="start" x="145.8959" y="-488.3" font-family="Arial" font-size="14.00" fill="#666666">[table]</text>
<polygon fill="none" stroke="#000000" points="46,-445.5 46,-475.5 212,-475.5 212,-445.5 46,-445.5"/>
<text text-anchor="start" x="53" y="-456.9" font-family="Arial" font-size="14.00" fill="#000000">id </text>
<text text-anchor="start" x="67.7798" y="-456.9" font-family="Arial" font-size="14.00" fill="#666666">[INTEGER]</text>
<polygon fill="none" stroke="#000000" points="46,-415.5 46,-445.5 212,-445.5 212,-415.5 46,-415.5"/>
<text text-anchor="start" x="53" y="-426.9" font-family="Arial" font-size="14.00" fill="#000000">article_id </text>
<text text-anchor="start" x="112.892" y="-426.9" font-family="Arial" font-size="14.00" fill="#666666">[INTEGER]</text>
<polygon fill="none" stroke="#000000" points="46,-385.5 46,-415.5 212,-415.5 212,-385.5 46,-385.5"/>
<text text-anchor="start" x="53" y="-396.9" font-family="Arial" font-size="14.00" fill="#000000">tag_id </text>
<text text-anchor="start" x="95.0182" y="-396.9" font-family="Arial" font-size="14.00" fill="#666666">[INTEGER]</text>
<polygon fill="none" stroke="#000000" points="46,-355.5 46,-385.5 212,-385.5 212,-355.5 46,-355.5"/>
<text text-anchor="start" x="53" y="-366.9" font-family="Arial" font-size="14.00" fill="#000000">created_at </text>
<text text-anchor="start" x="123.028" y="-366.9" font-family="Arial" font-size="14.00" fill="#666666">[datetime(6)]</text>
<polygon fill="none" stroke="#000000" points="46,-325.5 46,-355.5 212,-355.5 212,-325.5 46,-325.5"/>
<text text-anchor="start" x="52.7518" y="-336.9" font-family="Arial" font-size="14.00" fill="#000000">updated_at </text>
<text text-anchor="start" x="126.6844" y="-336.9" font-family="Arial" font-size="14.00" fill="#666666">[datetime(6)]</text>
</g>
<!-- taggings&#45;&gt;tags -->
<g id="edge1" class="edge">
<title>taggings:tag_id&#45;&gt;tags:id</title>
<path fill="none" stroke="#000000" d="M221.7656,-397.6924C267.3385,-370.2266 264.0833,-150.5 212,-150.5"/>
<polygon fill="#000000" stroke="#000000" points="221.6107,-397.7369 210.7566,-396.1752 216.8053,-399.1184 212,-400.5 212,-400.5 212,-400.5 216.8053,-399.1184 213.2434,-404.8248 221.6107,-397.7369 221.6107,-397.7369"/>
<text text-anchor="start" x="218.8905" y="-410.5" font-family="Arial" font-size="10.00" fill="#000000">FOREIGN KEY (tag_id) REFERENCES tags (id) ON UPDATE NO ACTION ON DELETE NO ACTION MATCH NONE</text>
</g>
</g>
</svg>
